ISO-10303-21;
HEADER;
FILE_DESCRIPTION(('FreeCAD Model'),'2;1');
FILE_NAME('Open CASCADE Shape Model','2026-08-09T20:31:32',(''),(''),
  'Open CASCADE STEP processor 7.8','FreeCAD','Unknown');
FILE_SCHEMA(('AUTOMOTIVE_DESIGN { 1 0 10303 214 1 1 1 1 }'));
ENDSEC;
DATA;
#1 = APPLICATION_PROTOCOL_DEFINITION('international standard',
  'automotive_design',2000,#2);
#2 = APPLICATION_CONTEXT(
  'core data for automotive mechanical design processes');
#3 = SHAPE_DEFINITION_REPRESENTATION(#4,#10);
#4 = PRODUCT_DEFINITION_SHAPE('','',#5);
#5 = PRODUCT_DEFINITION('design','',#6,#9);
#6 = PRODUCT_DEFINITION_FORMATION('','',#7);
#7 = PRODUCT('HoseToFan','HoseToFan','',(#8));
#8 = PRODUCT_CONTEXT('',#2,'mechanical');
#9 = PRODUCT_DEFINITION_CONTEXT('part definition',#2,'design');
#10 = ADVANCED_BREP_SHAPE_REPRESENTATION('',(#11,#15),#306);
#11 = AXIS2_PLACEMENT_3D('',#12,#13,#14);
#12 = CARTESIAN_POINT('',(0.,0.,0.));
#13 = DIRECTION('',(0.,0.,1.));
#14 = DIRECTION('',(1.,0.,-0.));
#15 = MANIFOLD_SOLID_BREP('',#16);
#16 = CLOSED_SHELL('',(#17,#45,#70,#95,#120,#145,#170,#194,#219,#244,
    #269,#294));
#17 = ADVANCED_FACE('',(#18,#29),#40,.T.);
#18 = FACE_BOUND('',#19,.F.);
#19 = EDGE_LOOP('',(#20));
#20 = ORIENTED_EDGE('',*,*,#21,.F.);
#21 = EDGE_CURVE('',#22,#22,#24,.T.);
#22 = VERTEX_POINT('',#23);
#23 = CARTESIAN_POINT('',(49.9,-8.E-15,-35.));
#24 = CIRCLE('',#25,49.9);
#25 = AXIS2_PLACEMENT_3D('',#26,#27,#28);
#26 = CARTESIAN_POINT('',(0.,-7.77E-15,-35.));
#27 = DIRECTION('',(0.,-2.2E-16,-1.));
#28 = DIRECTION('',(1.,0.,0.));
#29 = FACE_BOUND('',#30,.F.);
#30 = EDGE_LOOP('',(#31));
#31 = ORIENTED_EDGE('',*,*,#32,.T.);
#32 = EDGE_CURVE('',#33,#33,#35,.T.);
#33 = VERTEX_POINT('',#34);
#34 = CARTESIAN_POINT('',(46.9,-8.E-15,-35.));
#35 = CIRCLE('',#36,46.9);
#36 = AXIS2_PLACEMENT_3D('',#37,#38,#39);
#37 = CARTESIAN_POINT('',(0.,-7.77E-15,-35.));
#38 = DIRECTION('',(0.,-2.2E-16,-1.));
#39 = DIRECTION('',(1.,0.,0.));
#40 = PLANE('',#41);
#41 = AXIS2_PLACEMENT_3D('',#42,#43,#44);
#42 = CARTESIAN_POINT('',(0.,-7.77E-15,-35.));
#43 = DIRECTION('',(-0.,-2.2E-16,-1.));
#44 = DIRECTION('',(1.,0.,0.));
#45 = ADVANCED_FACE('',(#46),#65,.T.);
#46 = FACE_BOUND('',#47,.F.);
#47 = EDGE_LOOP('',(#48,#56,#57,#58));
#48 = ORIENTED_EDGE('',*,*,#49,.F.);
#49 = EDGE_CURVE('',#22,#50,#52,.T.);
#50 = VERTEX_POINT('',#51);
#51 = CARTESIAN_POINT('',(50.4,-8.E-15,-34.5));
#52 = LINE('',#53,#54);
#53 = CARTESIAN_POINT('',(50.4,-7.66E-15,-34.5));
#54 = VECTOR('',#55,1.);
#55 = DIRECTION('',(0.707106781187,1.6E-16,0.707106781187));
#56 = ORIENTED_EDGE('',*,*,#21,.T.);
#57 = ORIENTED_EDGE('',*,*,#49,.T.);
#58 = ORIENTED_EDGE('',*,*,#59,.F.);
#59 = EDGE_CURVE('',#50,#50,#60,.T.);
#60 = CIRCLE('',#61,50.4);
#61 = AXIS2_PLACEMENT_3D('',#62,#63,#64);
#62 = CARTESIAN_POINT('',(0.,-7.66E-15,-34.5));
#63 = DIRECTION('',(0.,-2.2E-16,-1.));
#64 = DIRECTION('',(1.,0.,0.));
#65 = CONICAL_SURFACE('',#66,50.4,0.785398163397);
#66 = AXIS2_PLACEMENT_3D('',#67,#68,#69);
#67 = CARTESIAN_POINT('',(0.,-7.66E-15,-34.5));
#68 = DIRECTION('',(0.,2.2E-16,1.));
#69 = DIRECTION('',(1.,0.,-0.));
#70 = ADVANCED_FACE('',(#71),#90,.F.);
#71 = FACE_BOUND('',#72,.T.);
#72 = EDGE_LOOP('',(#73,#81,#82,#83));
#73 = ORIENTED_EDGE('',*,*,#74,.F.);
#74 = EDGE_CURVE('',#33,#75,#77,.T.);
#75 = VERTEX_POINT('',#76);
#76 = CARTESIAN_POINT('',(46.4,-8.E-15,-34.5));
#77 = LINE('',#78,#79);
#78 = CARTESIAN_POINT('',(46.4,-7.66E-15,-34.5));
#79 = VECTOR('',#80,1.);
#80 = DIRECTION('',(-0.707106781187,1.6E-16,0.707106781187));
#81 = ORIENTED_EDGE('',*,*,#32,.T.);
#82 = ORIENTED_EDGE('',*,*,#74,.T.);
#83 = ORIENTED_EDGE('',*,*,#84,.F.);
#84 = EDGE_CURVE('',#75,#75,#85,.T.);
#85 = CIRCLE('',#86,46.4);
#86 = AXIS2_PLACEMENT_3D('',#87,#88,#89);
#87 = CARTESIAN_POINT('',(0.,-7.66E-15,-34.5));
#88 = DIRECTION('',(0.,-2.2E-16,-1.));
#89 = DIRECTION('',(1.,0.,0.));
#90 = CONICAL_SURFACE('',#91,46.4,0.785398163397);
#91 = AXIS2_PLACEMENT_3D('',#92,#93,#94);
#92 = CARTESIAN_POINT('',(0.,-7.66E-15,-34.5));
#93 = DIRECTION('',(-0.,-2.2E-16,-1.));
#94 = DIRECTION('',(1.,0.,-0.));
#95 = ADVANCED_FACE('',(#96),#115,.T.);
#96 = FACE_BOUND('',#97,.F.);
#97 = EDGE_LOOP('',(#98,#106,#107,#108));
#98 = ORIENTED_EDGE('',*,*,#99,.F.);
#99 = EDGE_CURVE('',#50,#100,#102,.T.);
#100 = VERTEX_POINT('',#101);
#101 = CARTESIAN_POINT('',(50.4,-1.E-15,-5.));
#102 = LINE('',#103,#104);
#103 = CARTESIAN_POINT('',(50.4,0.,-35.));
#104 = VECTOR('',#105,1.);
#105 = DIRECTION('',(0.,0.,1.));
#106 = ORIENTED_EDGE('',*,*,#59,.T.);
#107 = ORIENTED_EDGE('',*,*,#99,.T.);
#108 = ORIENTED_EDGE('',*,*,#109,.F.);
#109 = EDGE_CURVE('',#100,#100,#110,.T.);
#110 = CIRCLE('',#111,50.4);
#111 = AXIS2_PLACEMENT_3D('',#112,#113,#114);
#112 = CARTESIAN_POINT('',(0.,-1.11E-15,-5.));
#113 = DIRECTION('',(0.,-2.2E-16,-1.));
#114 = DIRECTION('',(1.,0.,0.));
#115 = CYLINDRICAL_SURFACE('',#116,50.4);
#116 = AXIS2_PLACEMENT_3D('',#117,#118,#119);
#117 = CARTESIAN_POINT('',(0.,-7.77E-15,-35.));
#118 = DIRECTION('',(0.,2.2E-16,1.));
#119 = DIRECTION('',(1.,0.,0.));
#120 = ADVANCED_FACE('',(#121),#140,.F.);
#121 = FACE_BOUND('',#122,.F.);
#122 = EDGE_LOOP('',(#123,#131,#138,#139));
#123 = ORIENTED_EDGE('',*,*,#124,.T.);
#124 = EDGE_CURVE('',#75,#125,#127,.T.);
#125 = VERTEX_POINT('',#126);
#126 = CARTESIAN_POINT('',(46.4,-8.E-15,-5.));
#127 = LINE('',#128,#129);
#128 = CARTESIAN_POINT('',(46.4,-7.77E-15,-35.));
#129 = VECTOR('',#130,1.);
#130 = DIRECTION('',(0.,0.,1.));
#131 = ORIENTED_EDGE('',*,*,#132,.T.);
#132 = EDGE_CURVE('',#125,#125,#133,.T.);
#133 = CIRCLE('',#134,46.4);
#134 = AXIS2_PLACEMENT_3D('',#135,#136,#137);
#135 = CARTESIAN_POINT('',(0.,-8.E-15,-5.));
#136 = DIRECTION('',(0.,0.,-1.));
#137 = DIRECTION('',(1.,0.,0.));
#138 = ORIENTED_EDGE('',*,*,#124,.F.);
#139 = ORIENTED_EDGE('',*,*,#84,.F.);
#140 = CYLINDRICAL_SURFACE('',#141,46.4);
#141 = AXIS2_PLACEMENT_3D('',#142,#143,#144);
#142 = CARTESIAN_POINT('',(0.,-7.77E-15,-35.));
#143 = DIRECTION('',(0.,0.,-1.));
#144 = DIRECTION('',(1.,0.,0.));
#145 = ADVANCED_FACE('',(#146),#165,.T.);
#146 = FACE_BOUND('',#147,.F.);
#147 = EDGE_LOOP('',(#148,#149,#157,#164));
#148 = ORIENTED_EDGE('',*,*,#109,.T.);
#149 = ORIENTED_EDGE('',*,*,#150,.T.);
#150 = EDGE_CURVE('',#100,#151,#153,.T.);
#151 = VERTEX_POINT('',#152);
#152 = CARTESIAN_POINT('',(53.25,1.E-15,5.));
#153 = LINE('',#154,#155);
#154 = CARTESIAN_POINT('',(50.4,0.,-5.));
#155 = VECTOR('',#156,1.);
#156 = DIRECTION('',(0.274085979638,0.,0.961705191712));
#157 = ORIENTED_EDGE('',*,*,#158,.F.);
#158 = EDGE_CURVE('',#151,#151,#159,.T.);
#159 = CIRCLE('',#160,53.25);
#160 = AXIS2_PLACEMENT_3D('',#161,#162,#163);
#161 = CARTESIAN_POINT('',(0.,1.11E-15,5.));
#162 = DIRECTION('',(0.,-2.2E-16,-1.));
#163 = DIRECTION('',(1.,0.,0.));
#164 = ORIENTED_EDGE('',*,*,#150,.F.);
#165 = CONICAL_SURFACE('',#166,50.4,0.27763915712);
#166 = AXIS2_PLACEMENT_3D('',#167,#168,#169);
#167 = CARTESIAN_POINT('',(0.,-1.11E-15,-5.));
#168 = DIRECTION('',(0.,2.2E-16,1.));
#169 = DIRECTION('',(1.,0.,0.));
#170 = ADVANCED_FACE('',(#171),#189,.F.);
#171 = FACE_BOUND('',#172,.T.);
#172 = EDGE_LOOP('',(#173,#182,#187,#188));
#173 = ORIENTED_EDGE('',*,*,#174,.T.);
#174 = EDGE_CURVE('',#175,#175,#177,.T.);
#175 = VERTEX_POINT('',#176);
#176 = CARTESIAN_POINT('',(49.25,6.E-15,5.));
#177 = CIRCLE('',#178,49.25);
#178 = AXIS2_PLACEMENT_3D('',#179,#180,#181);
#179 = CARTESIAN_POINT('',(0.,6.E-15,5.));
#180 = DIRECTION('',(0.,0.,1.));
#181 = DIRECTION('',(1.,0.,0.));
#182 = ORIENTED_EDGE('',*,*,#183,.T.);
#183 = EDGE_CURVE('',#175,#125,#184,.T.);
#184 = B_SPLINE_CURVE_WITH_KNOTS('',1,(#185,#186),.UNSPECIFIED.,.F.,.F.,
  (2,2),(0.,1.),.PIECEWISE_BEZIER_KNOTS.);
#185 = CARTESIAN_POINT('',(49.25,5.55E-15,5.));
#186 = CARTESIAN_POINT('',(46.4,-7.77E-15,-5.));
#187 = ORIENTED_EDGE('',*,*,#132,.T.);
#188 = ORIENTED_EDGE('',*,*,#183,.F.);
#189 = CONICAL_SURFACE('',#190,49.25,0.27763915712);
#190 = AXIS2_PLACEMENT_3D('',#191,#192,#193);
#191 = CARTESIAN_POINT('',(0.,5.55E-15,5.));
#192 = DIRECTION('',(0.,0.,1.));
#193 = DIRECTION('',(1.,0.,0.));
#194 = ADVANCED_FACE('',(#195),#214,.T.);
#195 = FACE_BOUND('',#196,.F.);
#196 = EDGE_LOOP('',(#197,#205,#206,#207));
#197 = ORIENTED_EDGE('',*,*,#198,.F.);
#198 = EDGE_CURVE('',#151,#199,#201,.T.);
#199 = VERTEX_POINT('',#200);
#200 = CARTESIAN_POINT('',(53.25,5.E-15,24.5));
#201 = LINE('',#202,#203);
#202 = CARTESIAN_POINT('',(53.25,0.,5.));
#203 = VECTOR('',#204,1.);
#204 = DIRECTION('',(0.,0.,1.));
#205 = ORIENTED_EDGE('',*,*,#158,.T.);
#206 = ORIENTED_EDGE('',*,*,#198,.T.);
#207 = ORIENTED_EDGE('',*,*,#208,.F.);
#208 = EDGE_CURVE('',#199,#199,#209,.T.);
#209 = CIRCLE('',#210,53.25);
#210 = AXIS2_PLACEMENT_3D('',#211,#212,#213);
#211 = CARTESIAN_POINT('',(0.,5.44E-15,24.5));
#212 = DIRECTION('',(0.,-2.2E-16,-1.));
#213 = DIRECTION('',(1.,0.,0.));
#214 = CYLINDRICAL_SURFACE('',#215,53.25);
#215 = AXIS2_PLACEMENT_3D('',#216,#217,#218);
#216 = CARTESIAN_POINT('',(0.,1.11E-15,5.));
#217 = DIRECTION('',(0.,2.2E-16,1.));
#218 = DIRECTION('',(1.,0.,0.));
#219 = ADVANCED_FACE('',(#220),#239,.F.);
#220 = FACE_BOUND('',#221,.F.);
#221 = EDGE_LOOP('',(#222,#230,#231,#232));
#222 = ORIENTED_EDGE('',*,*,#223,.T.);
#223 = EDGE_CURVE('',#224,#175,#226,.T.);
#224 = VERTEX_POINT('',#225);
#225 = CARTESIAN_POINT('',(49.25,5.E-15,24.5));
#226 = LINE('',#227,#228);
#227 = CARTESIAN_POINT('',(49.25,5.55E-15,25.));
#228 = VECTOR('',#229,1.);
#229 = DIRECTION('',(-0.,-0.,-1.));
#230 = ORIENTED_EDGE('',*,*,#174,.T.);
#231 = ORIENTED_EDGE('',*,*,#223,.F.);
#232 = ORIENTED_EDGE('',*,*,#233,.F.);
#233 = EDGE_CURVE('',#224,#224,#234,.T.);
#234 = CIRCLE('',#235,49.25);
#235 = AXIS2_PLACEMENT_3D('',#236,#237,#238);
#236 = CARTESIAN_POINT('',(0.,5.44E-15,24.5));
#237 = DIRECTION('',(-0.,2.2E-16,1.));
#238 = DIRECTION('',(1.,0.,0.));
#239 = CYLINDRICAL_SURFACE('',#240,49.25);
#240 = AXIS2_PLACEMENT_3D('',#241,#242,#243);
#241 = CARTESIAN_POINT('',(0.,5.55E-15,25.));
#242 = DIRECTION('',(0.,0.,1.));
#243 = DIRECTION('',(1.,0.,0.));
#244 = ADVANCED_FACE('',(#245),#264,.T.);
#245 = FACE_BOUND('',#246,.F.);
#246 = EDGE_LOOP('',(#247,#255,#256,#257));
#247 = ORIENTED_EDGE('',*,*,#248,.F.);
#248 = EDGE_CURVE('',#199,#249,#251,.T.);
#249 = VERTEX_POINT('',#250);
#250 = CARTESIAN_POINT('',(52.75,6.E-15,25.));
#251 = LINE('',#252,#253);
#252 = CARTESIAN_POINT('',(53.25,5.44E-15,24.5));
#253 = VECTOR('',#254,1.);
#254 = DIRECTION('',(-0.707106781187,1.6E-16,0.707106781187));
#255 = ORIENTED_EDGE('',*,*,#208,.T.);
#256 = ORIENTED_EDGE('',*,*,#248,.T.);
#257 = ORIENTED_EDGE('',*,*,#258,.F.);
#258 = EDGE_CURVE('',#249,#249,#259,.T.);
#259 = CIRCLE('',#260,52.75);
#260 = AXIS2_PLACEMENT_3D('',#261,#262,#263);
#261 = CARTESIAN_POINT('',(0.,5.55E-15,25.));
#262 = DIRECTION('',(0.,-2.2E-16,-1.));
#263 = DIRECTION('',(1.,0.,0.));
#264 = CONICAL_SURFACE('',#265,53.25,0.785398163397);
#265 = AXIS2_PLACEMENT_3D('',#266,#267,#268);
#266 = CARTESIAN_POINT('',(0.,5.44E-15,24.5));
#267 = DIRECTION('',(-0.,-2.2E-16,-1.));
#268 = DIRECTION('',(1.,0.,-0.));
#269 = ADVANCED_FACE('',(#270),#289,.F.);
#270 = FACE_BOUND('',#271,.F.);
#271 = EDGE_LOOP('',(#272,#280,#281,#282));
#272 = ORIENTED_EDGE('',*,*,#273,.F.);
#273 = EDGE_CURVE('',#224,#274,#276,.T.);
#274 = VERTEX_POINT('',#275);
#275 = CARTESIAN_POINT('',(49.75,6.E-15,25.));
#276 = LINE('',#277,#278);
#277 = CARTESIAN_POINT('',(49.25,5.44E-15,24.5));
#278 = VECTOR('',#279,1.);
#279 = DIRECTION('',(0.707106781187,1.6E-16,0.707106781187));
#280 = ORIENTED_EDGE('',*,*,#233,.T.);
#281 = ORIENTED_EDGE('',*,*,#273,.T.);
#282 = ORIENTED_EDGE('',*,*,#283,.F.);
#283 = EDGE_CURVE('',#274,#274,#284,.T.);
#284 = CIRCLE('',#285,49.75);
#285 = AXIS2_PLACEMENT_3D('',#286,#287,#288);
#286 = CARTESIAN_POINT('',(0.,5.55E-15,25.));
#287 = DIRECTION('',(-0.,2.2E-16,1.));
#288 = DIRECTION('',(1.,0.,0.));
#289 = CONICAL_SURFACE('',#290,49.25,0.785398163397);
#290 = AXIS2_PLACEMENT_3D('',#291,#292,#293);
#291 = CARTESIAN_POINT('',(0.,5.44E-15,24.5));
#292 = DIRECTION('',(0.,2.2E-16,1.));
#293 = DIRECTION('',(1.,0.,-0.));
#294 = ADVANCED_FACE('',(#295,#298),#301,.F.);
#295 = FACE_BOUND('',#296,.F.);
#296 = EDGE_LOOP('',(#297));
#297 = ORIENTED_EDGE('',*,*,#258,.T.);
#298 = FACE_BOUND('',#299,.F.);
#299 = EDGE_LOOP('',(#300));
#300 = ORIENTED_EDGE('',*,*,#283,.T.);
#301 = PLANE('',#302);
#302 = AXIS2_PLACEMENT_3D('',#303,#304,#305);
#303 = CARTESIAN_POINT('',(0.,5.55E-15,25.));
#304 = DIRECTION('',(-0.,-2.2E-16,-1.));
#305 = DIRECTION('',(1.,0.,0.));
#306 = ( GEOMETRIC_REPRESENTATION_CONTEXT(3) 
GLOBAL_UNCERTAINTY_ASSIGNED_CONTEXT((#310)) GLOBAL_UNIT_ASSIGNED_CONTEXT
((#307,#308,#309)) REPRESENTATION_CONTEXT('Context #1',
  '3D Context with UNIT and UNCERTAINTY') );
#307 = ( LENGTH_UNIT() NAMED_UNIT(*) SI_UNIT(.MILLI.,.METRE.) );
#308 = ( NAMED_UNIT(*) PLANE_ANGLE_UNIT() SI_UNIT($,.RADIAN.) );
#309 = ( NAMED_UNIT(*) SI_UNIT($,.STERADIAN.) SOLID_ANGLE_UNIT() );
#310 = UNCERTAINTY_MEASURE_WITH_UNIT(LENGTH_MEASURE(1.E-07),#307,
  'distance_accuracy_value','confusion accuracy');
#311 = PRODUCT_RELATED_PRODUCT_CATEGORY('part',$,(#7));
#312 = MECHANICAL_DESIGN_GEOMETRIC_PRESENTATION_REPRESENTATION('',(#313)
  ,#306);
#313 = STYLED_ITEM('color',(#314),#15);
#314 = PRESENTATION_STYLE_ASSIGNMENT((#315,#321));
#315 = SURFACE_STYLE_USAGE(.BOTH.,#316);
#316 = SURFACE_SIDE_STYLE('',(#317));
#317 = SURFACE_STYLE_FILL_AREA(#318);
#318 = FILL_AREA_STYLE('',(#319));
#319 = FILL_AREA_STYLE_COLOUR('',#320);
#320 = COLOUR_RGB('',0.447058818107,0.474509808674,0.501960817233);
#321 = CURVE_STYLE('',#322,POSITIVE_LENGTH_MEASURE(0.1),#323);
#322 = DRAUGHTING_PRE_DEFINED_CURVE_FONT('continuous');
#323 = COLOUR_RGB('',9.803921802644E-02,9.803921802644E-02,
  9.803921802644E-02);
ENDSEC;
END-ISO-10303-21;
