ISO-10303-21;
HEADER;
FILE_DESCRIPTION(('FreeCAD Model'),'2;1');
FILE_NAME('Open CASCADE Shape Model','2026-08-09T20:31:25',(''),(''),
  'Open CASCADE STEP processor 7.8','FreeCAD','Unknown');
FILE_SCHEMA(('AUTOMOTIVE_DESIGN { 1 0 10303 214 1 1 1 1 }'));
ENDSEC;
DATA;
#1 = APPLICATION_PROTOCOL_DEFINITION('international standard',
  'automotive_design',2000,#2);
#2 = APPLICATION_CONTEXT(
  'core data for automotive mechanical design processes');
#3 = SHAPE_DEFINITION_REPRESENTATION(#4,#10);
#4 = PRODUCT_DEFINITION_SHAPE('','',#5);
#5 = PRODUCT_DEFINITION('design','',#6,#9);
#6 = PRODUCT_DEFINITION_FORMATION('','',#7);
#7 = PRODUCT('TentToHose','TentToHose','',(#8));
#8 = PRODUCT_CONTEXT('',#2,'mechanical');
#9 = PRODUCT_DEFINITION_CONTEXT('part definition',#2,'design');
#10 = ADVANCED_BREP_SHAPE_REPRESENTATION('',(#11,#15),#290);
#11 = AXIS2_PLACEMENT_3D('',#12,#13,#14);
#12 = CARTESIAN_POINT('',(0.,0.,0.));
#13 = DIRECTION('',(0.,0.,1.));
#14 = DIRECTION('',(1.,0.,-0.));
#15 = MANIFOLD_SOLID_BREP('',#16);
#16 = CLOSED_SHELL('',(#17,#45,#70,#104,#129,#159,#177,#202,#228,#253,
    #273));
#17 = ADVANCED_FACE('',(#18,#29),#40,.F.);
#18 = FACE_BOUND('',#19,.T.);
#19 = EDGE_LOOP('',(#20));
#20 = ORIENTED_EDGE('',*,*,#21,.F.);
#21 = EDGE_CURVE('',#22,#22,#24,.T.);
#22 = VERTEX_POINT('',#23);
#23 = CARTESIAN_POINT('',(-50.,1.9E-14,42.85));
#24 = CIRCLE('',#25,42.85);
#25 = AXIS2_PLACEMENT_3D('',#26,#27,#28);
#26 = CARTESIAN_POINT('',(-50.,0.,0.));
#27 = DIRECTION('',(1.,0.,-0.));
#28 = DIRECTION('',(0.,4.4E-16,1.));
#29 = FACE_BOUND('',#30,.T.);
#30 = EDGE_LOOP('',(#31));
#31 = ORIENTED_EDGE('',*,*,#32,.F.);
#32 = EDGE_CURVE('',#33,#33,#35,.T.);
#33 = VERTEX_POINT('',#34);
#34 = CARTESIAN_POINT('',(-50.,-9.E-15,-39.05));
#35 = CIRCLE('',#36,39.05);
#36 = AXIS2_PLACEMENT_3D('',#37,#38,#39);
#37 = CARTESIAN_POINT('',(-50.,0.,0.));
#38 = DIRECTION('',(-1.,-0.,-0.));
#39 = DIRECTION('',(0.,0.,-1.));
#40 = PLANE('',#41);
#41 = AXIS2_PLACEMENT_3D('',#42,#43,#44);
#42 = CARTESIAN_POINT('',(-50.,0.,0.));
#43 = DIRECTION('',(1.,0.,0.));
#44 = DIRECTION('',(0.,4.4E-16,1.));
#45 = ADVANCED_FACE('',(#46),#65,.T.);
#46 = FACE_BOUND('',#47,.T.);
#47 = EDGE_LOOP('',(#48,#56,#57,#58));
#48 = ORIENTED_EDGE('',*,*,#49,.F.);
#49 = EDGE_CURVE('',#22,#50,#52,.T.);
#50 = VERTEX_POINT('',#51);
#51 = CARTESIAN_POINT('',(-49.8,1.9E-14,43.05));
#52 = LINE('',#53,#54);
#53 = CARTESIAN_POINT('',(-49.8,1.912E-14,43.05));
#54 = VECTOR('',#55,1.);
#55 = DIRECTION('',(0.707106781187,3.1E-16,0.707106781187));
#56 = ORIENTED_EDGE('',*,*,#21,.T.);
#57 = ORIENTED_EDGE('',*,*,#49,.T.);
#58 = ORIENTED_EDGE('',*,*,#59,.F.);
#59 = EDGE_CURVE('',#50,#50,#60,.T.);
#60 = CIRCLE('',#61,43.05);
#61 = AXIS2_PLACEMENT_3D('',#62,#63,#64);
#62 = CARTESIAN_POINT('',(-49.8,0.,0.));
#63 = DIRECTION('',(1.,0.,-0.));
#64 = DIRECTION('',(0.,4.4E-16,1.));
#65 = CONICAL_SURFACE('',#66,43.05,0.785398163397);
#66 = AXIS2_PLACEMENT_3D('',#67,#68,#69);
#67 = CARTESIAN_POINT('',(-49.8,0.,0.));
#68 = DIRECTION('',(1.,0.,0.));
#69 = DIRECTION('',(-0.,4.4E-16,1.));
#70 = ADVANCED_FACE('',(#71),#99,.F.);
#71 = FACE_BOUND('',#72,.F.);
#72 = EDGE_LOOP('',(#73,#74,#82,#91,#98));
#73 = ORIENTED_EDGE('',*,*,#32,.F.);
#74 = ORIENTED_EDGE('',*,*,#75,.T.);
#75 = EDGE_CURVE('',#33,#76,#78,.T.);
#76 = VERTEX_POINT('',#77);
#77 = CARTESIAN_POINT('',(5.E-15,-9.E-15,-39.05));
#78 = LINE('',#79,#80);
#79 = CARTESIAN_POINT('',(-50.,-8.67E-15,-39.05));
#80 = VECTOR('',#81,1.);
#81 = DIRECTION('',(1.,0.,2.2E-16));
#82 = ORIENTED_EDGE('',*,*,#83,.T.);
#83 = EDGE_CURVE('',#76,#84,#86,.T.);
#84 = VERTEX_POINT('',#85);
#85 = CARTESIAN_POINT('',(-1.6E-14,4.E-15,39.05));
#86 = CIRCLE('',#87,39.05);
#87 = AXIS2_PLACEMENT_3D('',#88,#89,#90);
#88 = CARTESIAN_POINT('',(0.,0.,1.1E-14));
#89 = DIRECTION('',(-1.,-0.,-0.));
#90 = DIRECTION('',(0.,0.,-1.));
#91 = ORIENTED_EDGE('',*,*,#92,.T.);
#92 = EDGE_CURVE('',#84,#76,#93,.T.);
#93 = CIRCLE('',#94,39.05);
#94 = AXIS2_PLACEMENT_3D('',#95,#96,#97);
#95 = CARTESIAN_POINT('',(0.,0.,1.1E-14));
#96 = DIRECTION('',(-1.,-0.,-0.));
#97 = DIRECTION('',(0.,0.,-1.));
#98 = ORIENTED_EDGE('',*,*,#75,.F.);
#99 = CYLINDRICAL_SURFACE('',#100,39.05);
#100 = AXIS2_PLACEMENT_3D('',#101,#102,#103);
#101 = CARTESIAN_POINT('',(-50.,0.,0.));
#102 = DIRECTION('',(-1.,-0.,-2.2E-16));
#103 = DIRECTION('',(2.2E-16,-2.2E-16,-1.));
#104 = ADVANCED_FACE('',(#105),#124,.T.);
#105 = FACE_BOUND('',#106,.T.);
#106 = EDGE_LOOP('',(#107,#115,#116,#117));
#107 = ORIENTED_EDGE('',*,*,#108,.F.);
#108 = EDGE_CURVE('',#50,#109,#111,.T.);
#109 = VERTEX_POINT('',#110);
#110 = CARTESIAN_POINT('',(0.,0.,43.05));
#111 = LINE('',#112,#113);
#112 = CARTESIAN_POINT('',(-50.,0.,43.05));
#113 = VECTOR('',#114,1.);
#114 = DIRECTION('',(1.,0.,0.));
#115 = ORIENTED_EDGE('',*,*,#59,.T.);
#116 = ORIENTED_EDGE('',*,*,#108,.T.);
#117 = ORIENTED_EDGE('',*,*,#118,.F.);
#118 = EDGE_CURVE('',#109,#109,#119,.T.);
#119 = CIRCLE('',#120,43.05);
#120 = AXIS2_PLACEMENT_3D('',#121,#122,#123);
#121 = CARTESIAN_POINT('',(0.,0.,0.));
#122 = DIRECTION('',(1.,0.,-0.));
#123 = DIRECTION('',(0.,4.4E-16,1.));
#124 = CYLINDRICAL_SURFACE('',#125,43.05);
#125 = AXIS2_PLACEMENT_3D('',#126,#127,#128);
#126 = CARTESIAN_POINT('',(-50.,0.,0.));
#127 = DIRECTION('',(1.,0.,0.));
#128 = DIRECTION('',(0.,4.4E-16,1.));
#129 = ADVANCED_FACE('',(#130),#154,.F.);
#130 = FACE_BOUND('',#131,.T.);
#131 = EDGE_LOOP('',(#132,#133,#140,#149));
#132 = ORIENTED_EDGE('',*,*,#92,.T.);
#133 = ORIENTED_EDGE('',*,*,#134,.T.);
#134 = EDGE_CURVE('',#76,#135,#137,.T.);
#135 = VERTEX_POINT('',#136);
#136 = CARTESIAN_POINT('',(21.292950000523,-1.6E-14,-46.8));
#137 = B_SPLINE_CURVE_WITH_KNOTS('',1,(#138,#139),.UNSPECIFIED.,.F.,.F.,
  (2,2),(0.,1.),.PIECEWISE_BEZIER_KNOTS.);
#138 = CARTESIAN_POINT('',(1.57E-15,-8.67E-15,-39.05));
#139 = CARTESIAN_POINT('',(21.292950000523,-1.612E-14,-46.8));
#140 = ORIENTED_EDGE('',*,*,#141,.T.);
#141 = EDGE_CURVE('',#135,#142,#144,.T.);
#142 = VERTEX_POINT('',#143);
#143 = CARTESIAN_POINT('',(21.292950000523,1.E-14,46.8));
#144 = CIRCLE('',#145,46.8);
#145 = AXIS2_PLACEMENT_3D('',#146,#147,#148);
#146 = CARTESIAN_POINT('',(21.292950000523,0.,1.4E-14));
#147 = DIRECTION('',(1.,0.,-0.));
#148 = DIRECTION('',(0.,0.,1.));
#149 = ORIENTED_EDGE('',*,*,#150,.F.);
#150 = EDGE_CURVE('',#84,#142,#151,.T.);
#151 = B_SPLINE_CURVE_WITH_KNOTS('',1,(#152,#153),.UNSPECIFIED.,.F.,.F.,
  (2,2),(0.,1.),.PIECEWISE_BEZIER_KNOTS.);
#152 = CARTESIAN_POINT('',(-1.578E-14,3.89E-15,39.05));
#153 = CARTESIAN_POINT('',(21.292950000523,1.039E-14,46.8));
#154 = CONICAL_SURFACE('',#155,39.05,0.349065850403);
#155 = AXIS2_PLACEMENT_3D('',#156,#157,#158);
#156 = CARTESIAN_POINT('',(-7.11E-15,0.,0.));
#157 = DIRECTION('',(1.,0.,2.2E-16));
#158 = DIRECTION('',(2.2E-16,-2.2E-16,-1.));
#159 = ADVANCED_FACE('',(#160),#172,.F.);
#160 = FACE_BOUND('',#161,.T.);
#161 = EDGE_LOOP('',(#162,#163,#164,#171));
#162 = ORIENTED_EDGE('',*,*,#83,.T.);
#163 = ORIENTED_EDGE('',*,*,#150,.T.);
#164 = ORIENTED_EDGE('',*,*,#165,.T.);
#165 = EDGE_CURVE('',#142,#135,#166,.T.);
#166 = CIRCLE('',#167,46.8);
#167 = AXIS2_PLACEMENT_3D('',#168,#169,#170);
#168 = CARTESIAN_POINT('',(21.292950000523,0.,1.4E-14));
#169 = DIRECTION('',(1.,0.,-0.));
#170 = DIRECTION('',(0.,0.,1.));
#171 = ORIENTED_EDGE('',*,*,#134,.F.);
#172 = CONICAL_SURFACE('',#173,39.05,0.349065850403);
#173 = AXIS2_PLACEMENT_3D('',#174,#175,#176);
#174 = CARTESIAN_POINT('',(-7.11E-15,0.,0.));
#175 = DIRECTION('',(1.,0.,2.2E-16));
#176 = DIRECTION('',(2.2E-16,-2.2E-16,-1.));
#177 = ADVANCED_FACE('',(#178),#197,.T.);
#178 = FACE_BOUND('',#179,.T.);
#179 = EDGE_LOOP('',(#180,#181,#189,#196));
#180 = ORIENTED_EDGE('',*,*,#118,.T.);
#181 = ORIENTED_EDGE('',*,*,#182,.T.);
#182 = EDGE_CURVE('',#109,#183,#185,.T.);
#183 = VERTEX_POINT('',#184);
#184 = CARTESIAN_POINT('',(21.292950000523,0.,50.8));
#185 = LINE('',#186,#187);
#186 = CARTESIAN_POINT('',(0.,0.,43.05));
#187 = VECTOR('',#188,1.);
#188 = DIRECTION('',(0.939692620785,0.,0.342020143329));
#189 = ORIENTED_EDGE('',*,*,#190,.F.);
#190 = EDGE_CURVE('',#183,#183,#191,.T.);
#191 = CIRCLE('',#192,50.8);
#192 = AXIS2_PLACEMENT_3D('',#193,#194,#195);
#193 = CARTESIAN_POINT('',(21.292950000523,0.,0.));
#194 = DIRECTION('',(1.,0.,-0.));
#195 = DIRECTION('',(0.,4.4E-16,1.));
#196 = ORIENTED_EDGE('',*,*,#182,.F.);
#197 = CONICAL_SURFACE('',#198,43.05,0.349065850403);
#198 = AXIS2_PLACEMENT_3D('',#199,#200,#201);
#199 = CARTESIAN_POINT('',(0.,0.,0.));
#200 = DIRECTION('',(1.,0.,0.));
#201 = DIRECTION('',(0.,4.4E-16,1.));
#202 = ADVANCED_FACE('',(#203),#223,.F.);
#203 = FACE_BOUND('',#204,.F.);
#204 = EDGE_LOOP('',(#205,#214,#220,#221,#222));
#205 = ORIENTED_EDGE('',*,*,#206,.F.);
#206 = EDGE_CURVE('',#207,#207,#209,.T.);
#207 = VERTEX_POINT('',#208);
#208 = CARTESIAN_POINT('',(86.292950000523,1.E-14,46.8));
#209 = CIRCLE('',#210,46.8);
#210 = AXIS2_PLACEMENT_3D('',#211,#212,#213);
#211 = CARTESIAN_POINT('',(86.292950000523,0.,0.));
#212 = DIRECTION('',(1.,0.,-0.));
#213 = DIRECTION('',(0.,0.,1.));
#214 = ORIENTED_EDGE('',*,*,#215,.T.);
#215 = EDGE_CURVE('',#207,#142,#216,.T.);
#216 = LINE('',#217,#218);
#217 = CARTESIAN_POINT('',(86.292950000523,1.039E-14,46.8));
#218 = VECTOR('',#219,1.);
#219 = DIRECTION('',(-1.,0.,2.2E-16));
#220 = ORIENTED_EDGE('',*,*,#165,.T.);
#221 = ORIENTED_EDGE('',*,*,#141,.T.);
#222 = ORIENTED_EDGE('',*,*,#215,.F.);
#223 = CYLINDRICAL_SURFACE('',#224,46.8);
#224 = AXIS2_PLACEMENT_3D('',#225,#226,#227);
#225 = CARTESIAN_POINT('',(86.292950000523,0.,0.));
#226 = DIRECTION('',(1.,0.,-2.2E-16));
#227 = DIRECTION('',(2.2E-16,2.2E-16,1.));
#228 = ADVANCED_FACE('',(#229),#248,.T.);
#229 = FACE_BOUND('',#230,.T.);
#230 = EDGE_LOOP('',(#231,#239,#240,#241));
#231 = ORIENTED_EDGE('',*,*,#232,.F.);
#232 = EDGE_CURVE('',#183,#233,#235,.T.);
#233 = VERTEX_POINT('',#234);
#234 = CARTESIAN_POINT('',(86.092950000523,2.3E-14,50.8));
#235 = LINE('',#236,#237);
#236 = CARTESIAN_POINT('',(21.292950000523,0.,50.8));
#237 = VECTOR('',#238,1.);
#238 = DIRECTION('',(1.,0.,0.));
#239 = ORIENTED_EDGE('',*,*,#190,.T.);
#240 = ORIENTED_EDGE('',*,*,#232,.T.);
#241 = ORIENTED_EDGE('',*,*,#242,.F.);
#242 = EDGE_CURVE('',#233,#233,#243,.T.);
#243 = CIRCLE('',#244,50.8);
#244 = AXIS2_PLACEMENT_3D('',#245,#246,#247);
#245 = CARTESIAN_POINT('',(86.092950000523,0.,0.));
#246 = DIRECTION('',(1.,0.,-0.));
#247 = DIRECTION('',(0.,4.4E-16,1.));
#248 = CYLINDRICAL_SURFACE('',#249,50.8);
#249 = AXIS2_PLACEMENT_3D('',#250,#251,#252);
#250 = CARTESIAN_POINT('',(21.292950000523,0.,0.));
#251 = DIRECTION('',(1.,0.,0.));
#252 = DIRECTION('',(0.,4.4E-16,1.));
#253 = ADVANCED_FACE('',(#254,#265),#268,.T.);
#254 = FACE_BOUND('',#255,.T.);
#255 = EDGE_LOOP('',(#256));
#256 = ORIENTED_EDGE('',*,*,#257,.T.);
#257 = EDGE_CURVE('',#258,#258,#260,.T.);
#258 = VERTEX_POINT('',#259);
#259 = CARTESIAN_POINT('',(86.292950000523,2.2E-14,50.6));
#260 = CIRCLE('',#261,50.6);
#261 = AXIS2_PLACEMENT_3D('',#262,#263,#264);
#262 = CARTESIAN_POINT('',(86.292950000523,0.,0.));
#263 = DIRECTION('',(1.,0.,-0.));
#264 = DIRECTION('',(0.,4.4E-16,1.));
#265 = FACE_BOUND('',#266,.T.);
#266 = EDGE_LOOP('',(#267));
#267 = ORIENTED_EDGE('',*,*,#206,.F.);
#268 = PLANE('',#269);
#269 = AXIS2_PLACEMENT_3D('',#270,#271,#272);
#270 = CARTESIAN_POINT('',(86.292950000523,0.,0.));
#271 = DIRECTION('',(1.,0.,0.));
#272 = DIRECTION('',(0.,4.4E-16,1.));
#273 = ADVANCED_FACE('',(#274),#285,.T.);
#274 = FACE_BOUND('',#275,.T.);
#275 = EDGE_LOOP('',(#276,#282,#283,#284));
#276 = ORIENTED_EDGE('',*,*,#277,.F.);
#277 = EDGE_CURVE('',#233,#258,#278,.T.);
#278 = LINE('',#279,#280);
#279 = CARTESIAN_POINT('',(86.092950000523,2.256E-14,50.8));
#280 = VECTOR('',#281,1.);
#281 = DIRECTION('',(0.707106781187,-3.1E-16,-0.707106781187));
#282 = ORIENTED_EDGE('',*,*,#242,.T.);
#283 = ORIENTED_EDGE('',*,*,#277,.T.);
#284 = ORIENTED_EDGE('',*,*,#257,.F.);
#285 = CONICAL_SURFACE('',#286,50.8,0.785398163397);
#286 = AXIS2_PLACEMENT_3D('',#287,#288,#289);
#287 = CARTESIAN_POINT('',(86.092950000523,0.,0.));
#288 = DIRECTION('',(-1.,-0.,-0.));
#289 = DIRECTION('',(-0.,4.4E-16,1.));
#290 = ( GEOMETRIC_REPRESENTATION_CONTEXT(3) 
GLOBAL_UNCERTAINTY_ASSIGNED_CONTEXT((#294)) GLOBAL_UNIT_ASSIGNED_CONTEXT
((#291,#292,#293)) REPRESENTATION_CONTEXT('Context #1',
  '3D Context with UNIT and UNCERTAINTY') );
#291 = ( LENGTH_UNIT() NAMED_UNIT(*) SI_UNIT(.MILLI.,.METRE.) );
#292 = ( NAMED_UNIT(*) PLANE_ANGLE_UNIT() SI_UNIT($,.RADIAN.) );
#293 = ( NAMED_UNIT(*) SI_UNIT($,.STERADIAN.) SOLID_ANGLE_UNIT() );
#294 = UNCERTAINTY_MEASURE_WITH_UNIT(LENGTH_MEASURE(2.E-07),#291,
  'distance_accuracy_value','confusion accuracy');
#295 = PRODUCT_RELATED_PRODUCT_CATEGORY('part',$,(#7));
#296 = MECHANICAL_DESIGN_GEOMETRIC_PRESENTATION_REPRESENTATION('',(#297)
  ,#290);
#297 = STYLED_ITEM('color',(#298),#15);
#298 = PRESENTATION_STYLE_ASSIGNMENT((#299,#305));
#299 = SURFACE_STYLE_USAGE(.BOTH.,#300);
#300 = SURFACE_SIDE_STYLE('',(#301));
#301 = SURFACE_STYLE_FILL_AREA(#302);
#302 = FILL_AREA_STYLE('',(#303));
#303 = FILL_AREA_STYLE_COLOUR('',#304);
#304 = COLOUR_RGB('',0.447058818107,0.474509808674,0.501960817233);
#305 = CURVE_STYLE('',#306,POSITIVE_LENGTH_MEASURE(0.1),#307);
#306 = DRAUGHTING_PRE_DEFINED_CURVE_FONT('continuous');
#307 = COLOUR_RGB('',9.803921802644E-02,9.803921802644E-02,
  9.803921802644E-02);
ENDSEC;
END-ISO-10303-21;
